<?xml version="1.0"?>
<svg xmlns="http://www.w3.org/2000/svg" viewBox="0 0 64 64" width="512" height="512"><g id="Diploma"><path d="M39,39.131a4.326,4.326,0,0,1-1.269-1.5,4.55,4.55,0,0,1-.181-2.014,3.314,3.314,0,0,0-.039-1.135,3.669,3.669,0,0,0-1.122-.027,4.531,4.531,0,0,1-2.016-.181A4.314,4.314,0,0,1,32.869,33c-.21-.239-.7-.8-.869-.8s-.659.562-.869.8a4.308,4.308,0,0,1-1.5,1.269,4.534,4.534,0,0,1-2.014.18,3.359,3.359,0,0,0-1.135.04,3.614,3.614,0,0,0-.027,1.123,4.55,4.55,0,0,1-.181,2.014A4.326,4.326,0,0,1,25,39.131c-.239.21-.8.7-.8.869s.562.659.8.869a4.326,4.326,0,0,1,1.269,1.5,4.55,4.55,0,0,1,.181,2.014,3.314,3.314,0,0,0,.039,1.135,3.638,3.638,0,0,0,1.122.027c.239-.015.49-.029.744-.029a3.3,3.3,0,0,1,1.272.21A4.314,4.314,0,0,1,31.131,47c.21.239.7.8.869.8s.659-.562.869-.8a4.308,4.308,0,0,1,1.5-1.269,4.579,4.579,0,0,1,2.014-.18,3.363,3.363,0,0,0,1.135-.04,3.614,3.614,0,0,0,.027-1.123,4.55,4.55,0,0,1,.181-2.014A4.326,4.326,0,0,1,39,40.869c.239-.21.8-.7.8-.869S39.238,39.341,39,39.131Z"/><path d="M19,40a13,13,0,1,1,21.505,9.809l.089.191H52V4H12V50H23.406l.089-.191A12.963,12.963,0,0,1,19,40ZM27,7H37V9H27ZM16,13H48v2H16Zm0,6H48v2H16Z"/><path d="M37.886,58.386l.624-1.718a1,1,0,0,1,.517-.564.991.991,0,0,1,.765-.034l1.72.625L38.863,51.02a12.89,12.89,0,0,1-3.676,1.568Z"/><path d="M43,40A11,11,0,1,0,32,51,11.013,11.013,0,0,0,43,40Zm-3.454,4.265a3.284,3.284,0,0,1-.616,2.665,3.286,3.286,0,0,1-2.665.616,3.478,3.478,0,0,0-1.126.032,3.522,3.522,0,0,0-.765.738A3.323,3.323,0,0,1,32,49.8a3.321,3.321,0,0,1-2.374-1.484,3.522,3.522,0,0,0-.765-.738,3.51,3.51,0,0,0-1.127-.032,3.3,3.3,0,0,1-2.664-.616,3.284,3.284,0,0,1-.616-2.665,3.533,3.533,0,0,0-.032-1.126,3.537,3.537,0,0,0-.737-.765A3.321,3.321,0,0,1,22.2,40a3.321,3.321,0,0,1,1.485-2.374,3.537,3.537,0,0,0,.737-.765,3.533,3.533,0,0,0,.032-1.126,3.284,3.284,0,0,1,.616-2.665,3.286,3.286,0,0,1,2.665-.616,3.567,3.567,0,0,0,1.126-.032,3.522,3.522,0,0,0,.765-.738A3.323,3.323,0,0,1,32,30.2a3.321,3.321,0,0,1,2.374,1.484,3.522,3.522,0,0,0,.765.738,3.484,3.484,0,0,0,1.127.032,3.3,3.3,0,0,1,2.664.616,3.284,3.284,0,0,1,.616,2.665,3.533,3.533,0,0,0,.032,1.126,3.537,3.537,0,0,0,.737.765A3.321,3.321,0,0,1,41.8,40a3.321,3.321,0,0,1-1.485,2.374,3.537,3.537,0,0,0-.737.765A3.533,3.533,0,0,0,39.546,44.265Z"/><path d="M24.973,56.1a1,1,0,0,1,.517.564l.624,1.718,2.7-5.8a12.89,12.89,0,0,1-3.676-1.568L22.488,56.7l1.72-.625A.991.991,0,0,1,24.973,56.1Z"/></g></svg>
