<svg id="Layer_1" height="512" viewBox="0 0 512 512" width="512" xmlns="http://www.w3.org/2000/svg" data-name="Layer 1"><path d="m219.476 380.637a33.425 33.425 0 0 0 66.85 0v-35.459l-2.159.8a33.41 33.41 0 0 1 -29.649-3.256 21.282 21.282 0 0 0 -14.5-3.206l-20.541 2.876z"/><path d="m261.036 332.649a21.365 21.365 0 0 0 18.955 2.081l4.734-1.758a33.48 33.48 0 0 0 -31.825-23.214h-33.424v20.52l18.877-2.643a33.276 33.276 0 0 1 22.683 5.014z"/><path d="m105.512 313.81a40.326 40.326 0 0 1 -11.725-1.755c-4.81-1.46-8.86-2.3-11.113-2.3a33.462 33.462 0 0 0 -33.425 33.425v8.82h5.991a12.192 12.192 0 0 0 12.179-12.178 14.338 14.338 0 0 1 14.322-14.322h40.412a17.719 17.719 0 0 0 -16.641-11.69z"/><path d="m383.505 375.709a33.425 33.425 0 0 0 66.85 0v-12.409c-8.212-1.323-14.6-8.791-18.689-16.259a73.734 73.734 0 0 1 -45.575 15.937h-2.586z"/><path d="m49.249 380.637a33.425 33.425 0 1 0 66.85 0v-25.552a22.655 22.655 0 0 1 -16.192-17.585h-18.166a2.324 2.324 0 0 0 -2.322 2.322 24.205 24.205 0 0 1 -24.179 24.178h-5.991z"/><path d="m116.1 342.026v-4.526h-3.721a10.652 10.652 0 0 0 3.721 4.526z"/><path d="m476.634 21.419h-441.268a18.386 18.386 0 0 0 -18.366 18.365v280.716a18.386 18.386 0 0 0 18.366 18.365h2.093a45.483 45.483 0 0 1 45.214-41.109c3.535 0 8.447.947 14.6 2.815a28.356 28.356 0 0 0 8.239 1.237 29.723 29.723 0 0 1 29.688 29.692 6 6 0 0 1 -6 6h-1.1v1.368h79.377v-35.11a6 6 0 0 1 6-6h39.423a45.483 45.483 0 0 1 45.214 41.109h74.338a45.393 45.393 0 0 1 78.648-20.643h9.345a29.133 29.133 0 0 1 26.619 17.37 18.32 18.32 0 0 0 7.936-15.094v-280.716a18.386 18.386 0 0 0 -18.366-18.365zm-257.091 81.5a8.437 8.437 0 0 1 12.657-7.311l84.061 48.533a8.437 8.437 0 0 1 0 14.613l-13.52 7.805a6 6 0 1 1 -6-10.392l8.174-4.72-73.371-42.36v84.721l19.256-11.118a6 6 0 0 1 6 10.393l-24.6 14.2a8.436 8.436 0 0 1 -12.655-7.306zm65.55 73.833-8.363 4.829a6 6 0 0 1 -6-10.393l8.363-4.828a6 6 0 0 1 6 10.392zm171.565 92.8h-355.185v15.5a6 6 0 0 1 -12 0v-15.5h-34.131a6 6 0 1 1 0-12h34.131v-15.5a6 6 0 0 1 12 0v15.5h355.185a6 6 0 0 1 0 12z"/><path d="m429.509 332.905a6 6 0 0 1 9.914 2.223c1.126 3.146 5.62 12.864 10.932 15.612v-2.629a33.425 33.425 0 0 0 -66.85 0v2.871h2.586a61.58 61.58 0 0 0 43.418-18.077z"/><path d="m460.44 330.224h-1.761a45.155 45.155 0 0 1 3.676 17.887v16.189a17.093 17.093 0 0 0 -1.915-34.078z"/><path d="m277.11 433.8h-48.419a24.028 24.028 0 0 0 -24 24v32.71h96.419v-32.71a24.027 24.027 0 0 0 -24-24zm6.32 32.338h-10.816a6 6 0 0 1 0-12h10.816a6 6 0 0 1 0 12z"/><path d="m106.883 433.8h-48.419a24.027 24.027 0 0 0 -24 24v32.71h96.419v-32.71a24.028 24.028 0 0 0 -24-24zm6.32 32.338h-10.817a6 6 0 0 1 0-12h10.814a6 6 0 1 1 0 12z"/><path d="m441.14 428.875h-48.419a24.027 24.027 0 0 0 -24 24v37.706h96.419v-37.706a24.027 24.027 0 0 0 -24-24zm6.32 32.338h-10.817a6 6 0 0 1 0-12h10.817a6 6 0 0 1 0 12z"/></svg>